<?xml version="1.0" standalone="no"?>
<!DOCTYPE svg PUBLIC "-//W3C//DTD SVG 1.1//EN" "http://www.w3.org/Graphics/SVG/1.1/DTD/svg11.dtd" >
<svg>
<metadata>
Created by FontForge 20090622 at Fri Nov 13 09:35:58 2015
 By deploy user
EeveSomepx
</metadata>
<defs>
<font id="Friendless" horiz-adv-x="256" >
  <font-face 
    font-family="Friendless"
    font-weight="500"
    font-stretch="normal"
    units-per-em="1024"
    panose-1="2 0 6 3 0 0 0 0 0 0"
    ascent="768"
    descent="-256"
    x-height="384"
    cap-height="704"
    bbox="0 -64 512 768"
    underline-thickness="51"
    underline-position="-103"
    unicode-range="U+0020-U+00B6"
  />
<missing-glyph horiz-adv-x="374" 
d="M34 0v682h272v-682h-272zM68 34h204v614h-204v-614z" />
    <glyph glyph-name=".notdef" horiz-adv-x="374" 
d="M34 0v682h272v-682h-272zM68 34h204v614h-204v-614z" />
    <glyph glyph-name=".null" horiz-adv-x="0" 
 />
    <glyph glyph-name="nonmarkingreturn" horiz-adv-x="341" 
 />
    <glyph glyph-name="space" unicode=" " horiz-adv-x="320" 
 />
    <glyph glyph-name="exclam" unicode="!" horiz-adv-x="192" 
d="M64 0h-64v64v64h64h64v-64v-64h-64zM64 192h-64v64v64v64v64v64v64v64v64v64h64h64v-64v-64v-64v-64v-64v-64v-64v-64v-64h-64z" />
    <glyph glyph-name="quotedbl" unicode="&#x22;" horiz-adv-x="320" 
d="M64 448v64h64v-64h-64zM0 576v64h64v-64h-64zM128 512v64v64h-64v64v64h64h64v-64v-64h64v-64v-64h-64h-64z" />
    <glyph glyph-name="numbersign" unicode="#" horiz-adv-x="384" 
d="M192 0v64h-64v-64h-64v64h-64v64v64h64v64h-64v64v64h64v64h64v-64h64v64h64v-64h64v-64v-64h-64v-64h64v-64v-64h-64v-64h-64zM192 192v64h-64v-64h64z" />
    <glyph glyph-name="dollar" unicode="$" 
d="M64 -64v64h-64v64h64v64v64h-64v64v64v64h64v64h64v-64h64v-64h-64v-64h64v-64v-64v-64v-64h-64v-64h-64z" />
    <glyph glyph-name="percent" unicode="%" horiz-adv-x="448" 
d="M320 64v64h64v-64h-64zM0 256v64h64v-64h-64zM64 0h-64v64v64h64h64v-64v-64h-64zM128 128v64v64h64h64v-64v-64h-64h-64zM256 256v64v64h64h64v-64v-64h-64h-64z" />
    <glyph glyph-name="ampersand" unicode="&#x26;" 
d="M64 -64v64h-64v64v64v64v64v64v64h64v64h64v-64h64v-64h-64h-64v-64h64h64v-64h-64h-64v-64h64h64v-64v-64h-64v-64h-64z" />
    <glyph glyph-name="quotesingle" unicode="'" horiz-adv-x="192" 
d="M64 640h-64v64v64h64h64v-64v-64h-64z" />
    <glyph glyph-name="parenleft" unicode="(" horiz-adv-x="192" 
d="M64 -64v64h-64v64v64v64v64v64v64v64v64v64v64v64h64v64h64v-64v-64v-64v-64v-64v-64v-64v-64v-64v-64v-64v-64v-64h-64z" />
    <glyph glyph-name="parenright" unicode=")" horiz-adv-x="192" 
d="M0 -64v64v64v64v64v64v64v64v64v64v64v64v64v64h64v-64h64v-64v-64v-64v-64v-64v-64v-64v-64v-64v-64v-64h-64v-64h-64z" />
    <glyph glyph-name="asterisk" unicode="*" horiz-adv-x="320" 
d="M192 64v64h64v-64h-64zM0 64v64h64v-64h-64zM192 128h-64h-64v64v64h64h64v-64v-64zM192 256v64h64v-64h-64zM64 256h-64v64h64v-64z" />
    <glyph glyph-name="plus" unicode="+" horiz-adv-x="320" 
d="M128 64h-64v64h-64v64v64h64v64h64h64v-64h64v-64v-64h-64v-64h-64z" />
    <glyph glyph-name="comma" unicode="," 
d="M0 -64v64h64v-64h-64zM64 0v64v64h64h64v-64v-64h-64h-64z" />
    <glyph glyph-name="hyphen" unicode="-" horiz-adv-x="320" 
d="M192 128h-64h-64h-64v64v64h64h64h64h64v-64v-64h-64z" />
    <glyph glyph-name="period" unicode="." horiz-adv-x="192" 
d="M64 0h-64v64v64h64h64v-64v-64h-64z" />
    <glyph glyph-name="slash" unicode="/" horiz-adv-x="320" 
d="M64 64h-64v64v64v64v64h64h64v-64v-64v-64v-64h-64zM128 320v64v64v64v64h64h64v-64v-64v-64v-64h-64h-64z" />
    <glyph glyph-name="zero" unicode="0" 
d="M128 0h-64h-64v64v64v64v64v64v64h64h64h64v-64v-64v-64v-64v-64v-64h-64z" />
    <glyph glyph-name="one" unicode="1" 
d="M128 0h-64v64v64v64v64h-64v64h64v64h64h64v-64v-64v-64v-64v-64v-64h-64z" />
    <glyph glyph-name="two" unicode="2" 
d="M128 0h-64h-64v64v64v64h64v64h-64v64v64h64h64h64v-64v-64v-64v-64h-64v-64h64v-64h-64z" />
    <glyph glyph-name="three" unicode="3" 
d="M128 0h-64h-64v64h64v64h-64v64h64v64h-64v64v64h64h64h64v-64v-64v-64v-64v-64v-64h-64z" />
    <glyph glyph-name="four" unicode="4" 
d="M128 0h-64v64v64h-64v64v64v64v64h64h64v-64v-64h64v-64v-64v-64v-64h-64z" />
    <glyph glyph-name="five" unicode="5" 
d="M128 0h-64h-64v64v64h64v64h-64v64v64v64h64h64h64v-64h-64v-64h64v-64v-64v-64v-64h-64z" />
    <glyph glyph-name="six" unicode="6" 
d="M128 0h-64h-64v64v64v64v64v64v64h64h64v-64v-64v-64h64v-64v-64v-64h-64z" />
    <glyph glyph-name="seven" unicode="7" 
d="M128 0h-64v64v64h-64v64h64v64h-64v64v64h64h64h64v-64v-64v-64v-64v-64v-64h-64z" />
    <glyph glyph-name="eight" unicode="8" 
d="M128 0h-64h-64v64v64v64v64v64v64h64h64h64v-64h-64v-64h64v-64v-64h-64v-64h64v-64h-64z" />
    <glyph glyph-name="nine" unicode="9" 
d="M128 0h-64v64v64v64h-64v64v64v64h64h64h64v-64v-64v-64v-64v-64v-64h-64z" />
    <glyph glyph-name="colon" unicode=":" horiz-adv-x="192" 
d="M64 0h-64v64v64h64h64v-64v-64h-64zM64 192h-64v64v64h64h64v-64v-64h-64z" />
    <glyph glyph-name="semicolon" unicode=";" 
d="M0 -64v64h64v-64h-64zM64 0v64v64h64h64v-64v-64h-64h-64zM128 192h-64v64v64h64h64v-64v-64h-64z" />
    <glyph glyph-name="less" unicode="&#x3c;" 
d="M128 0h-64v64v64h-64v64v64h64v64v64h64h64v-64v-64h-64v-64v-64h64v-64v-64h-64z" />
    <glyph glyph-name="equal" unicode="=" horiz-adv-x="320" 
d="M192 0h-64h-64h-64v64v64h64h64h64h64v-64v-64h-64zM192 256h-64h-64h-64v64v64h64h64h64h64v-64v-64h-64z" />
    <glyph glyph-name="greater" unicode="&#x3e;" 
d="M64 0h-64v64v64h64v64v64h-64v64v64h64h64v-64v-64h64v-64v-64h-64v-64v-64h-64z" />
    <glyph glyph-name="question" unicode="?" 
d="M128 0h-64v64v64h64h64v-64v-64h-64zM128 192h-64v64v64v64v64v64v64v64v64h-64v64h64h64h64v-64v-64v-64v-64v-64v-64v-64v-64v-64h-64z" />
    <glyph glyph-name="at" unicode="@" horiz-adv-x="576" 
d="M448 -64h-64h-64h-64h-64h-64h-64h-64v64v64v64v64v64v64v64v64v64h64h64h64h64h64h64h64h64v-64v-64v-64v-64v-64v-64v-64v-64v-64h-64zM448 0v64v64v64v64v64v64v64h-64h-64h-64h-64h-64v-64v-64v-64v-64v-64v-64v-64h64v64v64v64v64h64v64h-64v64h64h64h64v-64v-64
v-64v-64v-64v-64h64z" />
    <glyph glyph-name="A" unicode="A" 
d="M128 0v64v64v64v64v64v64h-64v-64v-64v-64v-64v-64v-64h-64v64v64v64v64v64v64v64v64v64h64v64h-64v64h64h64h64v-64v-64v-64v-64v-64v-64v-64v-64v-64v-64v-64h-64z" />
    <glyph glyph-name="B" unicode="B" 
d="M128 0h-64h-64v64h64v64v64v64v64h-64v64v64v64h64v64v64h-64v64h64h64h64v-64v-64v-64v-64h-64v-64h64v-64v-64v-64v-64v-64v-64h-64z" />
    <glyph glyph-name="C" unicode="C" 
d="M128 0h-64h-64v64v64v64v64v64v64v64v64v64v64v64h64h64h64v-64h-64v-64v-64v-64v-64v-64v-64v-64v-64v-64h64v-64h-64z" />
    <glyph glyph-name="D" unicode="D" 
d="M64 0h-64v64h64v64v64v64v64v64v64v64v64v64h-64v64h64h64v-64h64v-64v-64v-64v-64v-64v-64v-64v-64v-64h-64v-64h-64z" />
    <glyph glyph-name="E" unicode="E" 
d="M128 0h-64h-64v64v64v64v64v64v64v64v64v64v64v64h64h64h64v-64h-64v-64v-64v-64h64v-64h-64v-64v-64v-64v-64v-64h64v-64h-64z" />
    <glyph glyph-name="F" unicode="F" 
d="M64 0h-64v64v64v64v64v64v64v64v64v64v64v64h64h64h64v-64h-64v-64v-64v-64h64v-64h-64v-64v-64v-64v-64v-64v-64h-64z" />
    <glyph glyph-name="G" unicode="G" 
d="M128 0h-64h-64v64h64v64h-64v64v64v64v64v64v64v64v64v64h64h64h64v-64h-64v-64v-64v-64v-64v-64v-64v-64h64v-64v-64v-64h-64z" />
    <glyph glyph-name="H" unicode="H" 
d="M128 0v64h-64v-64h-64v64v64v64v64v64v64v64v64v64v64v64h64v-64h64v64h64v-64v-64v-64v-64v-64v-64v-64v-64v-64v-64v-64h-64z" />
    <glyph glyph-name="I" unicode="I" horiz-adv-x="192" 
d="M64 0h-64v64v64v64v64v64v64v64v64v64v64v64h64h64v-64v-64v-64v-64v-64v-64v-64v-64v-64v-64v-64h-64z" />
    <glyph glyph-name="J" unicode="J" 
d="M128 0h-64h-64v64h64v64v64v64v64v64v64v64v64v64v64h64h64v-64v-64v-64v-64v-64v-64v-64v-64v-64v-64v-64h-64z" />
    <glyph glyph-name="K" unicode="K" 
d="M128 0v64h-64v-64h-64v64v64v64v64v64v64v64v64v64v64v64h64v-64h64v64h64v-64v-64v-64v-64v-64h-64v-64h64v-64v-64v-64v-64v-64h-64z" />
    <glyph glyph-name="L" unicode="L" 
d="M128 0h-64h-64v64v64v64v64v64v64v64v64v64v64v64h64h64v-64v-64v-64v-64v-64v-64v-64v-64v-64v-64h64v-64h-64z" />
    <glyph glyph-name="M" unicode="M" horiz-adv-x="320" 
d="M192 0v64v64v64v64v64v64h-64v-64v-64v-64v-64v-64v-64h-64h-64v64v64v64v64v64v64v64v64v64v64v64h64h64v-64h64v64h64v-64v-64v-64v-64v-64v-64v-64v-64v-64v-64v-64h-64z" />
    <glyph glyph-name="N" unicode="N" horiz-adv-x="320" 
d="M192 0v64v64v64v64v64v64h-64v-64v-64v-64v-64v-64v-64h-64h-64v64v64v64v64v64v64v64v64v64v64v64h64h64h64v-64h64v-64v-64v-64v-64v-64v-64v-64v-64v-64v-64h-64z" />
    <glyph glyph-name="O" unicode="O" 
d="M128 0h-64h-64v64h64v64v64v64v64v64v64v64v64v64h-64v64h64h64h64v-64v-64v-64v-64v-64v-64v-64v-64v-64v-64v-64h-64z" />
    <glyph glyph-name="P" unicode="P" 
d="M64 0h-64v64v64v64v64v64v64v64v64h64v64v64h-64v64h64h64h64v-64v-64v-64v-64h-64v-64v-64v-64v-64v-64v-64v-64h-64z" />
    <glyph glyph-name="Q" unicode="Q" 
d="M128 0h-64h-64v64h64v64h-64v64h64v64v64v64v64v64v64v64h-64v64h64h64h64v-64v-64v-64v-64v-64v-64v-64v-64v-64v-64v-64h-64z" />
    <glyph glyph-name="R" unicode="R" 
d="M128 0h-64v64v64v64v64v64h-64v64v64v64h64v64v64h-64v64h64h64h64v-64v-64v-64v-64h-64v-64h64v-64v-64v-64v-64v-64v-64h-64z" />
    <glyph glyph-name="S" unicode="S" 
d="M128 0h-64h-64v64h64v64v64v64v64v64v64h-64v64v64v64v64h64h64h64v-64h-64v-64v-64h64v-64v-64v-64v-64v-64v-64v-64v-64h-64z" />
    <glyph glyph-name="T" unicode="T" 
d="M64 0h-64v64v64v64v64v64v64v64v64v64v64v64h64h64h64v-64h-64v-64v-64v-64v-64v-64v-64v-64v-64v-64v-64h-64z" />
    <glyph glyph-name="U" unicode="U" 
d="M128 0h-64h-64v64v64v64v64v64v64v64v64v64v64v64h64v-64v-64v-64v-64v-64h64v64v64v64v64v64h64v-64v-64v-64v-64v-64v-64v-64v-64v-64v-64v-64h-64z" />
    <glyph glyph-name="V" unicode="V" 
d="M64 0v64h-64v64v64v64v64v64v64v64v64v64v64h64v-64v-64v-64v-64v-64h64v64v64v64v64v64h64v-64v-64v-64v-64v-64v-64v-64v-64v-64v-64h-64v-64h-64z" />
    <glyph glyph-name="W" unicode="W" horiz-adv-x="320" 
d="M192 0v64h-64v-64h-64h-64v64v64v64v64v64v64v64v64v64v64v64h64h64v-64v-64v-64v-64v-64v-64h64v64v64v64v64v64v64h64v-64v-64v-64v-64v-64v-64v-64v-64v-64v-64v-64h-64z" />
    <glyph glyph-name="X" unicode="X" 
d="M128 0v64h-64v-64h-64v64v64v64v64v64h64v64h-64v64v64v64v64v64h64v-64h64v64h64v-64v-64v-64v-64v-64h-64v-64h64v-64v-64v-64v-64v-64h-64z" />
    <glyph glyph-name="Y" unicode="Y" 
d="M128 0h-64v64v64v64v64v64v64h-64v64v64v64v64v64h64v-64h64v64h64v-64v-64v-64v-64v-64v-64v-64v-64v-64v-64v-64h-64z" />
    <glyph glyph-name="Z" unicode="Z" 
d="M128 0h-64h-64v64v64v64v64v64v64v64v64h64v64v64h-64v64h64h64h64v-64v-64v-64v-64h-64v-64v-64v-64v-64v-64v-64h64v-64h-64z" />
    <glyph glyph-name="bracketleft" unicode="[" horiz-adv-x="192" 
d="M64 -64h-64v64v64v64v64v64v64v64v64v64v64v64v64v64h64h64v-64v-64h-64v-64v-64v-64v-64v-64v-64v-64v-64v-64h64v-64v-64h-64z" />
    <glyph glyph-name="backslash" unicode="\" horiz-adv-x="320" 
d="M192 64h-64v64v64v64v64h64h64v-64v-64v-64v-64h-64zM128 320h-64h-64v64v64v64v64h64h64v-64v-64v-64v-64z" />
    <glyph glyph-name="bracketright" unicode="]" horiz-adv-x="192" 
d="M64 -64h-64v64v64h64v64v64v64v64v64v64v64v64v64h-64v64v64h64h64v-64v-64v-64v-64v-64v-64v-64v-64v-64v-64v-64v-64v-64h-64z" />
    <glyph glyph-name="asciicircum" unicode="^" horiz-adv-x="320" 
d="M192 576v64h64v-64h-64zM0 576v64h64v-64h-64zM192 640h-64h-64v64v64h64h64v-64v-64z" />
    <glyph glyph-name="underscore" unicode="_" horiz-adv-x="320" 
d="M192 -64h-64h-64h-64v64v64h64h64h64h64v-64v-64h-64z" />
    <glyph glyph-name="grave" unicode="`" 
d="M128 576v64h64v-64h-64zM128 640h-64h-64v64v64h64h64v-64v-64z" />
    <glyph glyph-name="a" unicode="a" 
d="M128 0h-64h-64v64v64v64v64h64v64h-64v64h64h64h64v-64v-64v-64v-64v-64v-64h-64z" />
    <glyph glyph-name="b" unicode="b" 
d="M128 0h-64h-64v64h64v64v64v64v64h-64v64v64v64h64h64v-64v-64h64v-64v-64v-64v-64v-64v-64h-64z" />
    <glyph glyph-name="c" unicode="c" 
d="M128 0h-64h-64v64v64v64v64v64v64h64h64h64v-64h-64v-64v-64v-64v-64h64v-64h-64z" />
    <glyph glyph-name="d" unicode="d" 
d="M128 0h-64h-64v64v64v64v64v64v64h64v64v64h64h64v-64v-64v-64h-64v-64v-64v-64v-64h64v-64h-64z" />
    <glyph glyph-name="e" unicode="e" 
d="M128 0h-64h-64v64v64v64v64v64v64h64h64h64v-64v-64v-64h-64v-64v-64h64v-64h-64z" />
    <glyph glyph-name="f" unicode="f" 
d="M64 0h-64v64v64v64v64v64v64v64v64h64h64h64v-64h-64v-64h64v-64h-64v-64v-64v-64v-64v-64h-64z" />
    <glyph glyph-name="g" unicode="g" 
d="M128 0h-64h-64v64h64v64v64h-64v64v64v64h64h64h64v-64v-64v-64v-64v-64v-64h-64z" />
    <glyph glyph-name="h" unicode="h" 
d="M128 0v64h-64v-64h-64v64v64v64v64v64v64v64v64h64v-64h64v64h64v-64v-64v-64v-64v-64v-64v-64v-64h-64z" />
    <glyph glyph-name="i" unicode="i" horiz-adv-x="192" 
d="M64 0h-64v64v64v64v64v64v64h64h64v-64v-64v-64v-64v-64v-64h-64zM64 512h64v-64h-64h-64v64h64z" />
    <glyph glyph-name="j" unicode="j" 
d="M128 0h-64h-64v64h64v64v64v64v64v64h64h64v-64v-64v-64v-64v-64v-64h-64zM128 512h64v-64h-64h-64v64h64z" />
    <glyph glyph-name="k" unicode="k" 
d="M128 0v64h-64v-64h-64v64v64v64v64v64v64v64v64h64v-64h64v64h64v-64v-64v-64h-64v-64v-64h64v-64v-64v-64h-64z" />
    <glyph glyph-name="l" unicode="l" horiz-adv-x="192" 
d="M64 0h-64v64v64v64v64v64v64v64v64h64h64v-64v-64v-64v-64v-64v-64v-64v-64h-64z" />
    <glyph glyph-name="m" unicode="m" 
d="M128 0v64v64h-64v-64v-64h-64v64v64v64v64v64v64h64v-64h64v64h64v-64v-64v-64v-64v-64v-64h-64z" />
    <glyph glyph-name="n" unicode="n" 
d="M128 0v64v64h-64v-64v-64h-64v64v64v64v64v64v64h64h64v-64h64v-64v-64v-64v-64v-64h-64z" />
    <glyph glyph-name="o" unicode="o" 
d="M128 0h-64h-64v64v64v64v64v64v64h64h64h64v-64v-64v-64v-64v-64v-64h-64z" />
    <glyph glyph-name="p" unicode="p" 
d="M64 0h-64v64v64v64v64v64v64h64h64h64v-64v-64v-64h-64v-64v-64v-64h-64z" />
    <glyph glyph-name="q" unicode="q" 
d="M128 0h-64v64v64v64h-64v64v64v64h64h64h64v-64v-64v-64v-64v-64v-64h-64z" />
    <glyph glyph-name="r" unicode="r" 
d="M64 0h-64v64v64v64v64v64v64h64h64h64v-64h-64v-64v-64v-64v-64v-64h-64z" />
    <glyph glyph-name="s" unicode="s" 
d="M128 0h-64h-64v64h64v64v64h-64v64v64v64h64h64h64v-64h-64v-64h64v-64v-64v-64v-64h-64z" />
    <glyph glyph-name="t" unicode="t" 
d="M64 0h-64v64v64v64v64v64v64v64v64h64h64v-64v-64h64v-64h-64v-64v-64v-64v-64v-64h-64z" />
    <glyph glyph-name="u" unicode="u" 
d="M128 0h-64h-64v64v64v64v64v64v64h64v-64h64v64h64v-64v-64v-64v-64v-64v-64h-64z" />
    <glyph glyph-name="v" unicode="v" 
d="M64 0v64h-64v64v64v64v64v64h64v-64h64v64h64v-64v-64v-64v-64v-64h-64v-64h-64z" />
    <glyph glyph-name="w" unicode="w" 
d="M128 0v64h-64v-64h-64v64v64v64v64v64v64h64v-64v-64h64v64v64h64v-64v-64v-64v-64v-64v-64h-64z" />
    <glyph glyph-name="x" unicode="x" 
d="M128 0v64h-64v-64h-64v64v64v64h64v64h-64v64v64h64v-64h64v64h64v-64v-64h-64v-64h64v-64v-64v-64h-64z" />
    <glyph glyph-name="y" unicode="y" 
d="M128 0h-64v64v64h-64v64v64v64v64h64v-64h64v64h64v-64v-64v-64v-64v-64v-64h-64z" />
    <glyph glyph-name="z" unicode="z" 
d="M128 0h-64h-64v64v64v64v64h64v64h-64v64h64h64h64v-64v-64v-64h-64v-64h64v-64v-64h-64z" />
    <glyph glyph-name="braceleft" unicode="{" horiz-adv-x="192" 
d="M64 -64v64h-64v64v64v64v64h64v64h64v-64v-64v-64v-64v-64v-64h-64zM64 320h-64v64h64v-64zM64 384v64h-64v64v64v64v64h64v64h64v-64v-64v-64v-64v-64v-64h-64z" />
    <glyph glyph-name="bar" unicode="|" horiz-adv-x="192" 
d="M64 64h-64v64v64v64v64v64v64v64v64h64h64v-64v-64v-64v-64v-64v-64v-64v-64h-64z" />
    <glyph glyph-name="braceright" unicode="}" horiz-adv-x="192" 
d="M0 -64v64v64v64v64v64v64h64v-64h64v-64v-64v-64v-64h-64v-64h-64zM64 320v64h64v-64h-64zM64 384h-64v64v64v64v64v64v64h64v-64h64v-64v-64v-64v-64h-64v-64z" />
    <glyph glyph-name="asciitilde" unicode="~" horiz-adv-x="512" 
d="M0 128v64v64v64h64h64h64h64v-64v-64h64h64v64h64v-64v-64v-64h-64h-64h-64h-64v64v64h-64h-64v-64h-64z" />
    <glyph glyph-name="uni00A0" unicode="&#xa0;" horiz-adv-x="320" 
 />
    <glyph glyph-name="paragraph" unicode="&#xb6;" 
d="M64 -64v64h64v-64h-64zM128 0v64v64v64v64v64v64h-64v64h-64v64v64v64h64v64h64h64v-64v-64v-64v-64v-64v-64v-64v-64v-64v-64v-64h-64zM64 0h-64v64h64v-64z" />
  </font>
</defs>
</svg>
